<svg width="232" height="252" viewBox="0 0 232 252" fill="none" xmlns="http://www.w3.org/2000/svg">
<path d="M42.3289 125.759L11.7746 125.759C8.78477 125.755 5.91879 124.559 3.80608 122.433C1.69338 120.307 0.506712 117.425 0.506715 114.42L0.506714 29.412C0.516574 21.6145 3.60302 14.1392 9.08915 8.62551C14.5753 3.11184 22.0132 0.00990895 29.7718 -2.69959e-07L138.247 -1.2706e-06C146.006 0.00990781 153.444 3.11184 158.93 8.62551C164.416 14.1392 167.502 21.6145 167.512 29.412L167.512 73.3989C167.512 75.1866 168.219 76.9011 169.477 78.1653C170.734 79.4294 172.44 80.1396 174.219 80.1396C175.998 80.1396 177.704 79.4294 178.962 78.1653C180.22 76.9011 180.926 75.1866 180.926 73.3989L180.926 70.6127C180.926 67.6053 182.115 64.7211 184.231 62.5946C186.347 60.468 189.217 59.2733 192.209 59.2733C195.201 59.2733 198.071 60.468 200.187 62.5946C202.303 64.7211 203.492 67.6053 203.492 70.6127L203.492 73.3989C203.492 81.1994 200.409 88.6804 194.92 94.1963C189.432 99.7121 181.988 102.811 174.227 102.811C166.465 102.811 159.021 99.7121 153.533 94.1963C148.045 88.6804 144.962 81.1994 144.962 73.3989L144.962 29.412C144.962 27.6242 144.255 25.9097 142.997 24.6456C141.739 23.3814 140.033 22.6713 138.255 22.6713L29.7718 22.6713C27.993 22.6713 26.287 23.3814 25.0292 24.6456C23.7714 25.9097 23.0648 27.6242 23.0648 29.412L23.0648 103.08L42.3289 103.08C45.3213 103.08 48.1911 104.275 50.307 106.402C52.4229 108.528 53.6116 111.412 53.6116 114.42C53.6116 117.427 52.4229 120.311 50.307 122.438C48.1911 124.565 45.3213 125.759 42.3289 125.759Z" fill="#1C375B"/>
<path d="M220.349 59.2733C217.357 59.2733 214.487 60.468 212.371 62.5945C210.255 64.7211 209.066 67.6053 209.066 70.6127L209.066 221.904C209.066 223.692 208.36 225.407 207.102 226.671C205.844 227.935 204.138 228.645 202.359 228.645L197.478 228.645L197.478 180.501C197.478 172.692 194.392 165.203 188.898 159.68C183.404 154.157 175.953 151.054 168.183 151.052L154.501 151.052C146.735 151.06 139.29 154.166 133.803 159.688C128.315 165.211 125.234 172.697 125.236 180.501L125.236 228.66L29.7719 228.66C27.993 228.66 26.2871 227.95 25.0293 226.686C23.7714 225.422 23.0648 223.707 23.0648 221.919L23.0648 158.781L61.444 158.781C64.4364 158.781 67.3062 157.587 69.4222 155.46C71.5381 153.333 72.7268 150.449 72.7268 147.442C72.7268 144.434 71.5381 141.55 69.4222 139.424C67.3062 137.297 64.4364 136.102 61.444 136.102L11.7895 136.102C8.79972 136.102 5.93216 137.295 3.81666 139.418C1.70117 141.542 0.510708 144.422 0.506759 147.427C0.505187 147.795 0.522599 148.162 0.558924 148.528C0.522776 148.891 0.505364 149.256 0.506759 149.621L0.506759 221.897C0.516619 229.694 3.60306 237.17 9.0892 242.683C14.5753 248.197 22.0133 251.299 29.7719 251.309L202.337 251.309C210.096 251.301 217.535 248.2 223.022 242.685C228.508 237.171 231.594 229.695 231.602 221.897L231.602 70.6052C231.6 67.6043 230.414 64.7265 228.305 62.6025C226.196 60.4784 223.335 59.2812 220.349 59.2733ZM174.89 228.622L147.801 228.622L147.801 180.501C147.801 178.714 148.508 176.999 149.766 175.735C151.023 174.471 152.729 173.761 154.508 173.761L168.183 173.761C169.962 173.761 171.668 174.471 172.926 175.735C174.183 176.999 174.89 178.714 174.89 180.501L174.89 228.622Z" fill="#1C375B"/>
<path d="M105.107 34.9243L95.2624 34.9243C92.5566 34.9243 89.9617 36.0046 88.0484 37.9275C86.1351 39.8503 85.0602 42.4583 85.0602 45.1777L85.0602 55.0716C85.0622 57.7896 86.1379 60.3957 88.051 62.3169C89.9641 64.2382 92.5579 65.3174 95.2624 65.3174L105.107 65.3174C107.805 65.3075 110.389 64.2239 112.294 62.3037C114.199 60.3836 115.27 57.7831 115.272 55.0716L115.272 45.1777C115.272 42.4648 114.202 39.8625 112.297 37.9407C110.392 36.0189 107.806 34.9342 105.107 34.9243Z" fill="#1C375B"/>
<path d="M213.329 -2.75527e-07L201.733 -1.68561e-07C191.641 -7.54673e-08 183.46 8.22215 183.46 18.3647L183.46 30.0261C183.46 40.1687 191.641 48.3908 201.733 48.3908L213.329 48.3908C223.421 48.3908 231.602 40.1687 231.602 30.0261L231.602 18.3647C231.602 8.22215 223.421 -3.68621e-07 213.329 -2.75527e-07Z" fill="#CD4236"/>
<path d="M67.19 34.9243L57.353 34.9243C54.6472 34.9243 52.0522 36.0046 50.1389 37.9275C48.2257 39.8503 47.1508 42.4583 47.1508 45.1777L47.1508 55.0716C47.1528 57.7896 48.2285 60.3957 50.1416 62.3169C52.0546 64.2382 54.6485 65.3174 57.353 65.3174L67.19 65.3174C69.8945 65.3174 72.4883 64.2382 74.4014 62.3169C76.3144 60.3957 77.3902 57.7896 77.3921 55.0716L77.3921 45.1777C77.3921 42.4583 76.3173 39.8503 74.404 37.9275C72.4907 36.0046 69.8957 34.9243 67.19 34.9243Z" fill="#1C375B"/>
<path d="M103.445 115.461L93.6082 115.461C87.9737 115.461 83.406 120.052 83.406 125.715L83.406 135.601C83.406 141.264 87.9737 145.854 93.6082 145.854L103.445 145.854C109.08 145.854 113.647 141.264 113.647 135.601L113.647 125.715C113.647 120.052 109.08 115.461 103.445 115.461Z" fill="#1C375B"/>
<path d="M103.453 153.025L93.6082 153.025C90.9024 153.025 88.3074 154.105 86.3942 156.028C84.4809 157.951 83.406 160.559 83.406 163.278L83.406 173.172C83.406 174.518 83.67 175.851 84.1827 177.095C84.6955 178.338 85.4471 179.468 86.3946 180.419C87.3421 181.371 88.4668 182.126 89.7045 182.64C90.9423 183.154 92.2688 183.419 93.6082 183.418L103.453 183.418C104.792 183.419 106.118 183.154 107.355 182.64C108.592 182.125 109.717 181.371 110.664 180.419C111.61 179.467 112.361 178.338 112.873 177.094C113.385 175.85 113.648 174.518 113.647 173.172L113.647 163.263C113.645 160.547 112.57 157.943 110.659 156.023C108.747 154.103 106.155 153.025 103.453 153.025Z" fill="#1C375B"/>
</svg>
